<svg width="25" height="25" viewBox="0 0 25 25" fill="none" xmlns="http://www.w3.org/2000/svg">
<path d="M4.54545 1.13636C4.54545 0.834981 4.42573 0.545943 4.21262 0.332833C3.99951 0.119724 3.71047 0 3.40909 0C3.10771 0 2.81867 0.119724 2.60556 0.332833C2.39245 0.545943 2.27273 0.834981 2.27273 1.13636V5.68182H0V12.5H6.81818V5.68182H4.54545V1.13636ZM9.09091 17.0455C9.09091 18.5284 10.0455 19.7784 11.3636 20.2443V25H13.6364V20.2443C14.9545 19.7727 15.9091 18.5284 15.9091 17.0455V14.7727H9.09091V17.0455ZM0 17.0455C0 18.5284 0.954545 19.7784 2.27273 20.2443V25H4.54545V20.2443C5.86364 19.7727 6.81818 18.5284 6.81818 17.0455V14.7727H0V17.0455ZM22.7273 5.68182V1.13636C22.7273 0.834981 22.6075 0.545943 22.3944 0.332833C22.1813 0.119724 21.8923 0 21.5909 0C21.2895 0 21.0005 0.119724 20.7874 0.332833C20.5743 0.545943 20.4545 0.834981 20.4545 1.13636V5.68182H18.1818V12.5H25V5.68182H22.7273ZM13.6364 1.13636C13.6364 0.834981 13.5166 0.545943 13.3035 0.332833C13.0904 0.119724 12.8014 0 12.5 0C12.1986 0 11.9096 0.119724 11.6965 0.332833C11.4834 0.545943 11.3636 0.834981 11.3636 1.13636V5.68182H9.09091V12.5H15.9091V5.68182H13.6364V1.13636ZM18.1818 17.0455C18.1818 18.5284 19.1364 19.7784 20.4545 20.2443V25H22.7273V20.2443C24.0455 19.7727 25 18.5284 25 17.0455V14.7727H18.1818V17.0455Z" fill="#646464"/>
</svg>
