<svg width="23" height="22" viewBox="0 0 23 22" fill="none" xmlns="http://www.w3.org/2000/svg">
<path fill-rule="evenodd" clip-rule="evenodd" d="M2.174 0.867586L3.31599 2.63471H18.5425C20.0551 2.63471 21.1971 4.07115 20.8865 5.61092L20.1252 9.41386C19.9149 10.4679 19.0634 11.2533 18.0216 11.367L6.3713 12.5864C6.91224 13.2685 7.72365 13.6922 8.6152 13.6922H17.8012C18.3321 13.6922 18.7629 14.1365 18.7629 14.6842C18.7629 15.2319 18.3321 15.6763 17.8012 15.6763H8.6152C6.44142 15.6763 4.5281 14.1572 3.96712 11.987L1.91355 4.05048L0.571214 1.963C0.270691 1.5083 0.400918 0.888254 0.841684 0.588566C1.28245 0.278544 1.8835 0.412887 2.174 0.867586ZM4.05728 4.62919L5.61999 10.6643L17.8312 9.38286C18.0316 9.36219 18.1919 9.21752 18.2419 9.0005L19.0033 5.19756C19.0634 4.89787 18.843 4.61885 18.5525 4.61885H4.05728V4.62919Z" fill="#969696"/>
<path fill-rule="evenodd" clip-rule="evenodd" d="M4.69812 19.1071C4.69812 17.743 5.76998 16.6372 7.09228 16.6372C8.41458 16.6372 9.48645 17.743 9.48645 19.1071C9.48645 20.4711 8.41458 21.5769 7.09228 21.5769C5.76998 21.5769 4.69812 20.4711 4.69812 19.1071ZM7.09228 18.6317C6.84185 18.6317 6.63148 18.8487 6.63148 19.1071C6.63148 19.3654 6.84185 19.5824 7.09228 19.5824C7.34272 19.5824 7.55309 19.3654 7.55309 19.1071C7.55309 18.8487 7.34272 18.6317 7.09228 18.6317Z" fill="#969696"/>
<path fill-rule="evenodd" clip-rule="evenodd" d="M13.9844 19.1071C13.9844 17.743 15.0562 16.6372 16.3785 16.6372C17.7008 16.6372 18.7727 17.743 18.7727 19.1071C18.7727 20.4711 17.7008 21.5769 16.3785 21.5769C15.0562 21.5769 13.9844 20.4711 13.9844 19.1071ZM16.3785 18.6317C16.1281 18.6317 15.9177 18.8487 15.9177 19.1071C15.9177 19.3654 16.1281 19.5824 16.3785 19.5824C16.629 19.5824 16.8393 19.3654 16.8393 19.1071C16.8393 18.8487 16.629 18.6317 16.3785 18.6317Z" fill="#969696"/>
</svg>
