<svg width="28" height="27" viewBox="0 0 28 27" fill="none" xmlns="http://www.w3.org/2000/svg">
<path d="M24 5H4C2.89543 5 2 5.89543 2 7V20C2 21.1046 2.89543 22 4 22H24C25.1046 22 26 21.1046 26 20V7C26 5.89543 25.1046 5 24 5Z" stroke="#646464" stroke-width="2"/>
<path d="M8 8H6C5.44772 8 5 8.44772 5 9V18C5 18.5523 5.44772 19 6 19H8C8.55228 19 9 18.5523 9 18V9C9 8.44772 8.55228 8 8 8Z" stroke="#646464" stroke-width="2"/>
<path d="M15 8H13C12.4477 8 12 8.44772 12 9V18C12 18.5523 12.4477 19 13 19H15C15.5523 19 16 18.5523 16 18V9C16 8.44772 15.5523 8 15 8Z" stroke="#646464" stroke-width="2"/>
<path d="M22 8H20C19.4477 8 19 8.44772 19 9V18C19 18.5523 19.4477 19 20 19H22C22.5523 19 23 18.5523 23 18V9C23 8.44772 22.5523 8 22 8Z" stroke="#646464" stroke-width="2"/>
</svg>
