<svg width="26" height="22" viewBox="0 0 26 22" fill="none" xmlns="http://www.w3.org/2000/svg">
<path d="M22.0995 3.87099H20.4356L20.0196 2.58067C19.7499 1.82355 19.2497 1.16842 18.5882 0.706042C17.9267 0.243665 17.1367 -0.00306696 16.3277 2.87788e-05H9.6718C8.85483 0.00154582 8.05897 0.257684 7.39654 0.732293C6.73412 1.2069 6.23858 1.87601 5.97988 2.64519L5.56388 3.93551H3.89992C2.8656 3.93551 1.87364 4.34334 1.14226 5.06929C0.410883 5.79523 0 6.77983 0 7.80647V18.129C0 19.1557 0.410883 20.1403 1.14226 20.8662C1.87364 21.5922 2.8656 22 3.89992 22H22.0995C23.1339 22 24.1258 21.5922 24.8572 20.8662C25.5886 20.1403 25.9995 19.1557 25.9995 18.129V7.80647C26.0081 7.29273 25.9136 6.78242 25.7215 6.3053C25.5293 5.82818 25.2434 5.3938 24.8804 5.02748C24.5174 4.66117 24.0846 4.37025 23.6071 4.1717C23.1297 3.97314 22.6172 3.87092 22.0995 3.87099ZM23.3995 18.0645C23.3995 18.4067 23.2626 18.7349 23.0188 18.9769C22.775 19.2189 22.4443 19.3548 22.0995 19.3548H3.89992C3.55514 19.3548 3.22449 19.2189 2.9807 18.9769C2.73691 18.7349 2.59995 18.4067 2.59995 18.0645V7.74195C2.59995 7.39974 2.73691 7.07154 2.9807 6.82956C3.22449 6.58758 3.55514 6.45163 3.89992 6.45163H6.49987C6.78335 6.46632 7.06388 6.3885 7.29861 6.23007C7.53335 6.07163 7.70939 5.84129 7.79984 5.57422L8.50182 3.45809C8.58903 3.2018 8.75519 2.97921 8.9768 2.82176C9.19841 2.66431 9.46427 2.57997 9.7368 2.58067H16.3927C16.6652 2.57997 16.9311 2.66431 17.1527 2.82176C17.3743 2.97921 17.5404 3.2018 17.6276 3.45809L18.3296 5.57422C18.413 5.82034 18.5693 6.03575 18.7781 6.19229C18.9868 6.34883 19.2383 6.43922 19.4996 6.45163H22.0995C22.4443 6.45163 22.775 6.58758 23.0188 6.82956C23.2626 7.07154 23.3995 7.39974 23.3995 7.74195V18.0645ZM12.9997 6.45163C11.9713 6.45163 10.9659 6.75434 10.1108 7.32147C9.25571 7.8886 8.58922 8.69468 8.19566 9.63778C7.80209 10.5809 7.69911 11.6186 7.89975 12.6198C8.10039 13.621 8.59563 14.5407 9.32285 15.2625C10.0501 15.9843 10.9766 16.4759 11.9853 16.675C12.994 16.8742 14.0395 16.772 14.9896 16.3813C15.9398 15.9907 16.7519 15.3291 17.3233 14.4804C17.8947 13.6316 18.1996 12.6337 18.1996 11.6129C18.1996 10.2441 17.6518 8.93127 16.6766 7.96334C15.7014 6.99541 14.3788 6.45163 12.9997 6.45163ZM12.9997 14.1936C12.4855 14.1936 11.9828 14.0422 11.5553 13.7586C11.1277 13.4751 10.7945 13.072 10.5977 12.6005C10.4009 12.1289 10.3494 11.6101 10.4497 11.1095C10.5501 10.6089 10.7977 10.149 11.1613 9.78813C11.5249 9.42722 11.9882 9.18144 12.4925 9.08186C12.9968 8.98229 13.5196 9.03339 13.9947 9.22871C14.4698 9.42404 14.8758 9.7548 15.1615 10.1792C15.4472 10.6036 15.5997 11.1025 15.5997 11.6129C15.5997 12.2973 15.3258 12.9537 14.8382 13.4377C14.3506 13.9217 13.6893 14.1936 12.9997 14.1936Z" fill="#646464"/>
</svg>
