<svg width="23" height="19" viewBox="0 0 23 19" fill="none" xmlns="http://www.w3.org/2000/svg">
<g clip-path="url(#clip0_269_38)">
<path d="M11.5 18.9916C10.7583 18.3881 9.9199 17.7604 9.03326 17.0925H9.02176C5.89951 14.7504 2.36097 12.1002 0.798125 8.92455C0.284671 7.91355 0.0125658 6.81359 1.31169e-05 5.6983C-0.00341594 4.16798 0.665611 2.70097 1.8559 1.62884C3.04619 0.556706 4.65727 -0.0300483 6.32501 0.00118614C7.68273 0.00315354 9.01122 0.363144 10.1522 1.03827C10.6536 1.33681 11.1072 1.69793 11.5 2.11123C11.895 1.69955 12.3488 1.33864 12.8489 1.03827C13.9894 0.363011 15.3176 0.00299924 16.675 0.00118614C18.3427 -0.0300483 19.9538 0.556706 21.1441 1.62884C22.3344 2.70097 23.0034 4.16798 23 5.6983C22.9883 6.81537 22.7161 7.91721 22.2019 8.92983C20.639 12.1054 17.1016 14.7546 13.9794 17.0925L13.9679 17.101C13.0801 17.7646 12.2429 18.3923 11.5012 19L11.5 18.9916ZM6.32501 2.11123C5.2538 2.09893 4.2206 2.47504 3.45002 3.15781C2.70756 3.82687 2.29261 4.74355 2.29992 5.6983C2.31305 6.51119 2.51372 7.31233 2.88882 8.04889C3.62655 9.41905 4.62199 10.6591 5.82936 11.7119C6.96901 12.7669 8.28001 13.7882 9.41391 14.647C9.72785 14.8844 10.0476 15.1239 10.3673 15.3633L10.5685 15.5142C10.8756 15.7442 11.193 15.9826 11.5 16.2169L11.5149 16.2042L11.5219 16.1989H11.5287L11.5391 16.1915H11.5449H11.5506L11.5713 16.1757L11.6185 16.1409L11.6265 16.1346L11.6392 16.1261H11.646L11.6564 16.1177L12.42 15.5427L12.6201 15.3918C12.9432 15.1502 13.2629 14.9107 13.5769 14.6734C14.7108 13.8146 16.0229 12.7944 17.1626 11.7341C18.3701 10.6818 19.3656 9.44205 20.1031 8.0721C20.485 7.32915 20.6886 6.51964 20.7 5.6983C20.7048 4.7465 20.29 3.83333 19.55 3.16625C18.7809 2.4804 17.7475 2.10119 16.675 2.11123C15.3662 2.10102 14.115 2.60431 13.2365 3.49436L11.5 5.3301L9.7635 3.49436C8.88498 2.60431 7.6338 2.10102 6.32501 2.11123Z" fill="#969696"/>
</g>
<defs>
<clipPath id="clip0_269_38">
<rect width="23" height="19" fill="white"/>
</clipPath>
</defs>
</svg>
