<svg width="28" height="28" viewBox="0 0 28 28" fill="none" xmlns="http://www.w3.org/2000/svg">
<path d="M4 14H24V23C24 24.1046 23.1046 25 22 25H6C4.89543 25 4 24.1046 4 23V14Z" stroke="#646464" stroke-width="2"/>
<path d="M24 8H4C2.89543 8 2 8.89543 2 10V12C2 13.1046 2.89543 14 4 14H24C25.1046 14 26 13.1046 26 12V10C26 8.89543 25.1046 8 24 8Z" stroke="#646464" stroke-width="2"/>
<path d="M17 8C18.6569 8 20 6.65685 20 5C20 3.34315 18.6569 2 17 2C15.3431 2 14 3.34315 14 5" stroke="#646464" stroke-width="2"/>
<path d="M14 5C14 4.23165 13.7111 3.53076 13.2361 3C12.6868 2.38625 11.8885 2 11 2C9.34315 2 8 3.34315 8 5C8 6.65685 9.34315 8 11 8" stroke="#646464" stroke-width="2"/>
<path d="M14 24V5" stroke="#646464" stroke-width="2"/>
</svg>
