<svg width="26" height="23" viewBox="0 0 26 23" fill="none" xmlns="http://www.w3.org/2000/svg">
<path d="M3.62199 3.6225H9.46699V9.4675H3.62199V3.6225Z" stroke="#646464" stroke-width="2" stroke-miterlimit="10" stroke-linecap="round" stroke-linejoin="round"/>
<path d="M11.829 4.86951H16.7815" stroke="#646464" stroke-width="2" stroke-miterlimit="10" stroke-linecap="round" stroke-linejoin="round"/>
<path d="M11.829 8.22H16.7815" stroke="#646464" stroke-width="2" stroke-miterlimit="10" stroke-linecap="round" stroke-linejoin="round"/>
<path d="M3.62199 12.155H16.4905" stroke="#646464" stroke-width="2" stroke-miterlimit="10" stroke-linecap="round" stroke-linejoin="round"/>
<path d="M3.62199 15.5615H16.4905" stroke="#646464" stroke-width="2" stroke-miterlimit="10" stroke-linecap="round" stroke-linejoin="round"/>
<path d="M3.62199 18.9675H16.4905" stroke="#646464" stroke-width="2" stroke-miterlimit="10" stroke-linecap="round" stroke-linejoin="round"/>
<path d="M21.8925 21.977H4.1075C3.69933 21.977 3.29516 21.8966 2.91808 21.7404C2.541 21.5841 2.19838 21.3551 1.90981 21.0665C1.62124 20.7778 1.39237 20.4351 1.23626 20.058C1.08015 19.6809 0.999869 19.2767 1 18.8685V1H18.785V18.869" stroke="#646464" stroke-width="2" stroke-miterlimit="10" stroke-linecap="round" stroke-linejoin="round"/>
<path d="M25 11.2515H18.785V18.869C18.785 19.6932 19.1124 20.4836 19.6952 21.0663C20.2779 21.6491 21.0683 21.9765 21.8925 21.9765C22.7167 21.9765 23.5071 21.6491 24.0898 21.0663C24.6726 20.4836 25 19.6932 25 18.869V11.2515Z" stroke="#646464" stroke-width="2" stroke-miterlimit="10" stroke-linecap="round" stroke-linejoin="round"/>
</svg>
