<svg width="28" height="28" viewBox="0 0 28 28" fill="none" xmlns="http://www.w3.org/2000/svg">
<path d="M24 12H4C2.89543 12 2 12.8954 2 14V20C2 21.1046 2.89543 22 4 22H24C25.1046 22 26 21.1046 26 20V14C26 12.8954 25.1046 12 24 12Z" stroke="#646464" stroke-width="2"/>
<path d="M22 6H6C5.44772 6 5 6.44772 5 7V8C5 8.55228 5.44772 9 6 9H22C22.5523 9 23 8.55228 23 8V7C23 6.44772 22.5523 6 22 6Z" stroke="#646464" stroke-width="2"/>
<path d="M15 16H13V18H15V16Z" stroke="#646464" stroke-width="2"/>
<path d="M15 16H13V18H15V16Z" stroke="#646464" stroke-width="2"/>
<path d="M15 16H13V18H15V16Z" stroke="#646464" stroke-width="2"/>
<path d="M9 16H7V18H9V16Z" stroke="#646464" stroke-width="2"/>
<path d="M21 16H19V18H21V16Z" stroke="#646464" stroke-width="2"/>
</svg>
