<svg width="27" height="27" viewBox="0 0 27 27" fill="none" xmlns="http://www.w3.org/2000/svg">
<path fill-rule="evenodd" clip-rule="evenodd" d="M3.13372 14.931C3.04579 14.3842 3 13.8227 3 13.2498C3 12.9269 3.01454 12.6076 3.04297 12.2926C3.06499 12.0487 3.09534 11.8072 3.13372 11.5685C3.93771 6.56895 8.27379 2.74976 13.5 2.74976C19.299 2.74976 24 7.45077 24 13.2498C24 19.0487 19.299 23.7498 13.5 23.7498C10.3177 23.7498 7.46681 22.3353 5.53973 20.0973C5.5384 20.0957 5.53707 20.0942 5.53574 20.0927L4.11996 21.5122C6.40911 24.1091 9.76349 25.7498 13.5 25.7498C20.4036 25.7498 26 20.1533 26 13.2498C26 6.3462 20.4036 0.749756 13.5 0.749756C7.27623 0.749756 2.1165 5.29732 1.15909 11.251C1.11338 11.5353 1.07726 11.8227 1.05107 12.1129C1.01725 12.4875 1 12.8668 1 13.2498C1 13.9294 1.05434 14.5971 1.15909 15.2485C1.28038 16.0027 1.46915 16.7346 1.71906 17.4376C1.90405 17.9579 2.47586 18.2298 2.99625 18.0448C3.51663 17.8598 3.78851 17.288 3.60352 16.7677C3.39393 16.178 3.23553 15.5641 3.13372 14.931Z" fill="#646464"/>
<path d="M18.8784 8.16397L6.29263 20.7498" stroke="#646464" stroke-width="2" stroke-linecap="round"/>
<path d="M7.85776 12.1137C8.63881 12.8948 9.90514 12.8948 10.6862 12.1137C11.4672 11.3327 11.4672 10.0663 10.6862 9.28528C9.90514 8.50423 8.63881 8.50423 7.85776 9.28528C7.07671 10.0663 7.07671 11.3327 7.85776 12.1137Z" stroke="#646464" stroke-width="2"/>
<path d="M14.9286 19.1848C15.7096 19.9659 16.976 19.9659 17.757 19.1848C18.5381 18.4038 18.5381 17.1374 17.757 16.3564C16.976 15.5753 15.7096 15.5753 14.9286 16.3564C14.1475 17.1374 14.1475 18.4038 14.9286 19.1848Z" stroke="#646464" stroke-width="2"/>
</svg>
