<svg width="14" height="13" viewBox="0 0 14 13" fill="none" xmlns="http://www.w3.org/2000/svg">
<g clip-path="url(#clip0_269_332)">
<path fill-rule="evenodd" clip-rule="evenodd" d="M1.70514 0.624965L2.3382 1.62634H10.779C11.6175 1.62634 12.2506 2.44032 12.0784 3.31285L11.6563 5.46785C11.5398 6.06514 11.0677 6.5102 10.4902 6.57463L4.0319 7.26563C4.33177 7.65215 4.78158 7.89225 5.27581 7.89225H10.368C10.6623 7.89225 10.9012 8.14402 10.9012 8.45438C10.9012 8.76474 10.6623 9.01657 10.368 9.01657H5.27581C4.07078 9.01657 3.01013 8.15575 2.69915 6.92597L1.56076 2.42861L0.816639 1.2457C0.650045 0.988037 0.722236 0.636677 0.966574 0.466854C1.21091 0.291175 1.5441 0.367302 1.70514 0.624965ZM2.74913 2.75654L3.61542 6.17644L10.3847 5.45029C10.4958 5.43857 10.5846 5.35659 10.6123 5.23362L11.0344 3.07862C11.0677 2.90879 10.9456 2.75068 10.7845 2.75068H2.74913V2.75654Z" fill="white"/>
<path fill-rule="evenodd" clip-rule="evenodd" d="M3.1044 10.9607C3.1044 10.1877 3.69858 9.5611 4.4316 9.5611C5.16461 9.5611 5.7588 10.1877 5.7588 10.9607C5.7588 11.7336 5.16461 12.3603 4.4316 12.3603C3.69858 12.3603 3.1044 11.7336 3.1044 10.9607ZM4.4316 10.6913C4.29277 10.6913 4.17615 10.8143 4.17615 10.9607C4.17615 11.1071 4.29277 11.23 4.4316 11.23C4.57043 11.23 4.68705 11.1071 4.68705 10.9607C4.68705 10.8143 4.57043 10.6913 4.4316 10.6913Z" fill="white"/>
<path fill-rule="evenodd" clip-rule="evenodd" d="M8.25223 10.9607C8.25223 10.1877 8.84638 9.5611 9.57939 9.5611C10.3124 9.5611 10.9066 10.1877 10.9066 10.9607C10.9066 11.7336 10.3124 12.3603 9.57939 12.3603C8.84638 12.3603 8.25223 11.7336 8.25223 10.9607ZM9.57939 10.6913C9.44058 10.6913 9.32395 10.8143 9.32395 10.9607C9.32395 11.1071 9.44058 11.23 9.57939 11.23C9.71826 11.23 9.83484 11.1071 9.83484 10.9607C9.83484 10.8143 9.71826 10.6913 9.57939 10.6913Z" fill="white"/>
</g>
<defs>
<clipPath id="clip0_269_332">
<rect width="12.75" height="12.4667" fill="white" transform="translate(0.5 0.133362)"/>
</clipPath>
</defs>
</svg>
